<svg width="3000" height="750" viewBox="0 0 3000 750" fill="none" xmlns="http://www.w3.org/2000/svg">
<rect width="3000" height="750" fill="#42B4FF"/>
<path d="M572.219 337.815H585.077L613.721 426.039H601.881L594.752 402.742H562.034L555.032 426.039H543.574L572.219 337.815ZM591.824 393.194L578.329 348.636L564.835 393.194H591.824ZM621.437 337.815H634.167L651.354 411.653L666.503 340.489H679.489L694.384 411.908L712.079 337.815H724.301L700.749 426.039H687.636L672.869 357.166L657.974 426.039H644.861L621.437 337.815ZM763.307 427.949C758.724 427.949 754.268 427.439 749.939 426.421C745.611 425.403 741.792 423.96 738.482 422.093V412.926C743.15 414.878 747.393 416.236 751.212 417C755.032 417.764 759.063 418.146 763.307 418.146C769.842 418.146 775.019 416.788 778.838 414.072C782.657 411.271 784.567 407.495 784.567 402.742C784.567 400.281 784.185 398.244 783.421 396.631C782.742 395.019 781.469 393.576 779.602 392.303C777.735 391.03 774.976 389.714 771.327 388.356L760.76 384.537C752.273 381.482 746.332 378.087 742.937 374.352C739.543 370.533 737.845 365.483 737.845 359.203C737.845 352.158 740.561 346.514 745.993 342.271C751.509 338.027 758.766 335.906 767.762 335.906C776.08 335.906 783.846 337.603 791.06 340.998V350.164C782.318 347.193 774.552 345.708 767.762 345.708C761.906 345.708 757.408 346.854 754.268 349.146C751.128 351.437 749.557 354.747 749.557 359.075C749.557 362.725 750.661 365.611 752.867 367.732C755.159 369.854 759.615 372.103 766.235 374.48L776.801 378.299C783.846 380.76 788.853 383.858 791.823 387.592C794.794 391.327 796.279 396.334 796.279 402.615C796.279 407.792 794.879 412.29 792.078 416.109C789.277 419.928 785.416 422.856 780.493 424.893C775.571 426.93 769.842 427.949 763.307 427.949ZM913.43 427.949C908.847 427.949 904.391 427.439 900.062 426.421C895.734 425.403 891.915 423.96 888.605 422.093V412.926C893.273 414.878 897.516 416.236 901.335 417C905.155 417.764 909.186 418.146 913.43 418.146C919.965 418.146 925.142 416.788 928.961 414.072C932.78 411.271 934.69 407.495 934.69 402.742C934.69 400.281 934.308 398.244 933.544 396.631C932.865 395.019 931.592 393.576 929.725 392.303C927.858 391.03 925.1 389.714 921.45 388.356L910.884 384.537C902.396 381.482 896.455 378.087 893.061 374.352C889.666 370.533 887.968 365.483 887.968 359.203C887.968 352.158 890.684 346.514 896.116 342.271C901.633 338.027 908.889 335.906 917.885 335.906C926.203 335.906 933.969 337.603 941.183 340.998V350.164C932.441 347.193 924.675 345.708 917.885 345.708C912.029 345.708 907.531 346.854 904.391 349.146C901.251 351.437 899.68 354.747 899.68 359.075C899.68 362.725 900.784 365.611 902.99 367.732C905.282 369.854 909.738 372.103 916.358 374.48L926.924 378.299C933.969 380.76 938.976 383.858 941.946 387.592C944.917 391.327 946.402 396.334 946.402 402.615C946.402 407.792 945.002 412.29 942.201 416.109C939.4 419.928 935.539 422.856 930.616 424.893C925.694 426.93 919.965 427.949 913.43 427.949ZM997.785 427.312C990.571 427.312 985.351 425.7 982.126 422.474C978.901 419.249 977.288 413.987 977.288 406.688V370.533H961.247V362.767L977.543 361.622L979.325 341.507H988.618V361.494H1018.15V370.533H988.618V405.543C988.618 410.126 989.467 413.351 991.165 415.218C992.947 417.085 996.002 418.019 1000.33 418.019C1003.22 418.019 1006.31 417.764 1009.62 417.255C1012.93 416.661 1015.99 415.897 1018.79 414.963V423.238C1016.41 424.427 1013.27 425.403 1009.37 426.166C1005.55 426.93 1001.69 427.312 997.785 427.312ZM1058.59 427.949C1052.65 427.949 1048.11 426.294 1044.97 422.984C1041.83 419.674 1040.26 414.921 1040.26 408.725V361.494H1051.59V404.779C1051.59 409.532 1052.48 413.011 1054.26 415.218C1056.04 417.425 1058.93 418.528 1062.92 418.528C1069.79 418.528 1076.54 416.279 1083.16 411.781V361.494H1094.49V426.039H1084.94L1083.79 418.783C1075.73 424.893 1067.33 427.949 1058.59 427.949ZM1138.87 427.949C1130.38 427.949 1123.72 424.978 1118.88 419.037C1114.04 413.011 1111.63 404.736 1111.63 394.212C1111.63 383.688 1114.09 375.328 1119.01 369.133C1124.02 362.852 1130.72 359.712 1139.12 359.712C1142.77 359.712 1146.13 360.306 1149.18 361.494C1152.32 362.683 1155.38 364.592 1158.35 367.223V331.832H1169.68V426.039H1159.62L1158.6 419.928C1155.8 422.474 1152.7 424.469 1149.31 425.912C1145.91 427.27 1142.43 427.949 1138.87 427.949ZM1142.18 418.655C1147.19 418.655 1152.58 416.533 1158.35 412.29V375.371C1155.46 373.079 1152.7 371.467 1150.07 370.533C1147.44 369.515 1144.56 369.005 1141.41 369.005C1135.39 369.005 1130.85 371.085 1127.79 375.243C1124.74 379.402 1123.21 385.555 1123.21 393.703C1123.21 401.766 1124.82 407.961 1128.05 412.29C1131.36 416.533 1136.07 418.655 1142.18 418.655ZM1220.93 427.949C1210.24 427.949 1202.09 425.063 1196.49 419.292C1190.97 413.436 1188.21 404.906 1188.21 393.703C1188.21 383.009 1190.93 374.692 1196.36 368.751C1201.79 362.725 1209.35 359.712 1219.02 359.712C1227.34 359.712 1233.79 362.004 1238.37 366.587C1243.04 371.085 1245.38 377.45 1245.38 385.683C1245.38 389.587 1245.08 393.109 1244.48 396.249H1199.16C1199.59 404.057 1201.62 409.744 1205.27 413.308C1209.01 416.873 1214.69 418.655 1222.33 418.655C1230.14 418.655 1237.4 417.34 1244.1 414.709V422.984C1241.22 424.511 1237.74 425.7 1233.66 426.548C1229.59 427.482 1225.35 427.949 1220.93 427.949ZM1235.06 388.356C1235.15 387.423 1235.19 386.234 1235.19 384.792C1235.19 379.529 1233.79 375.498 1230.99 372.697C1228.19 369.897 1224.11 368.496 1218.77 368.496C1212.91 368.496 1208.33 370.194 1205.02 373.588C1201.71 376.898 1199.76 381.821 1199.16 388.356H1235.06ZM1265.19 361.494H1274.73L1275.88 368.878C1284.2 362.767 1292.81 359.712 1301.72 359.712C1307.83 359.712 1312.5 361.409 1315.73 364.804C1319.04 368.114 1320.69 372.867 1320.69 379.063V426.039H1309.36V383.009C1309.36 378.172 1308.39 374.607 1306.43 372.315C1304.57 370.024 1301.55 368.878 1297.39 368.878C1290.6 368.878 1283.64 371.212 1276.52 375.88V426.039H1265.19V361.494ZM1373.09 427.312C1365.88 427.312 1360.66 425.7 1357.43 422.474C1354.21 419.249 1352.6 413.987 1352.6 406.688V370.533H1336.56V362.767L1352.85 361.622L1354.63 341.507H1363.93V361.494H1393.46V370.533H1363.93V405.543C1363.93 410.126 1364.77 413.351 1366.47 415.218C1368.25 417.085 1371.31 418.019 1375.64 418.019C1378.52 418.019 1381.62 417.764 1384.93 417.255C1388.24 416.661 1391.3 415.897 1394.1 414.963V423.238C1391.72 424.427 1388.58 425.403 1384.68 426.166C1380.86 426.93 1377 427.312 1373.09 427.312ZM1489.61 337.815H1516.98C1525.12 337.815 1531.66 339.937 1536.58 344.181C1541.59 348.424 1544.09 354.068 1544.09 361.112C1544.09 365.526 1543.08 369.345 1541.04 372.57C1539 375.71 1536.07 378.129 1532.25 379.827C1537.69 381.439 1541.84 384.113 1544.73 387.847C1547.62 391.496 1549.06 396.037 1549.06 401.469C1549.06 408.937 1546.47 414.921 1541.29 419.419C1536.12 423.832 1529.2 426.039 1520.54 426.039H1489.61V337.815ZM1520.29 416.873C1531.58 416.873 1537.22 411.611 1537.22 401.087C1537.22 395.91 1535.78 392.006 1532.89 389.375C1530 386.744 1525.76 385.428 1520.16 385.428H1500.68V416.873H1520.29ZM1515.96 376.517C1526.91 376.517 1532.38 371.594 1532.38 361.749C1532.38 356.826 1530.98 353.134 1528.18 350.673C1525.46 348.212 1521.48 346.981 1516.21 346.981H1500.68V376.517H1515.96ZM1584.02 427.949C1578.08 427.949 1573.54 426.294 1570.4 422.984C1567.26 419.674 1565.69 414.921 1565.69 408.725V361.494H1577.02V404.779C1577.02 409.532 1577.91 413.011 1579.69 415.218C1581.47 417.425 1584.36 418.528 1588.35 418.528C1595.22 418.528 1601.97 416.279 1608.59 411.781V361.494H1619.92V426.039H1610.37L1609.23 418.783C1601.16 424.893 1592.76 427.949 1584.02 427.949ZM1639.47 417H1663.28V370.533H1643.8V361.494H1674.61V417H1697.02V426.039H1639.47V417ZM1666.85 350.164C1664.38 350.164 1662.39 349.443 1660.86 348C1659.33 346.472 1658.57 344.478 1658.57 342.016C1658.57 339.47 1659.33 337.476 1660.86 336.033C1662.39 334.505 1664.38 333.741 1666.85 333.741C1669.39 333.741 1671.43 334.505 1672.96 336.033C1674.48 337.476 1675.25 339.47 1675.25 342.016C1675.25 344.478 1674.48 346.472 1672.96 348C1671.43 349.443 1669.39 350.164 1666.85 350.164ZM1713.52 417H1737.32V340.871H1716.7V331.832H1748.65V417H1771.06V426.039H1713.52V417ZM1814.42 427.949C1805.94 427.949 1799.27 424.978 1794.44 419.037C1789.6 413.011 1787.18 404.736 1787.18 394.212C1787.18 383.688 1789.64 375.328 1794.56 369.133C1799.57 362.852 1806.27 359.712 1814.68 359.712C1818.33 359.712 1821.68 360.306 1824.73 361.494C1827.87 362.683 1830.93 364.592 1833.9 367.223V331.832H1845.23V426.039H1835.17L1834.16 419.928C1831.35 422.474 1828.26 424.469 1824.86 425.912C1821.47 427.27 1817.99 427.949 1814.42 427.949ZM1817.73 418.655C1822.74 418.655 1828.13 416.533 1833.9 412.29V375.371C1831.01 373.079 1828.26 371.467 1825.63 370.533C1822.99 369.515 1820.11 369.005 1816.97 369.005C1810.94 369.005 1806.4 371.085 1803.35 375.243C1800.29 379.402 1798.76 385.555 1798.76 393.703C1798.76 401.766 1800.38 407.961 1803.6 412.29C1806.91 416.533 1811.62 418.655 1817.73 418.655ZM1896.49 427.949C1885.79 427.949 1877.64 425.063 1872.04 419.292C1866.53 413.436 1863.77 404.906 1863.77 393.703C1863.77 383.009 1866.48 374.692 1871.92 368.751C1877.35 362.725 1884.9 359.712 1894.58 359.712C1902.89 359.712 1909.34 362.004 1913.93 366.587C1918.59 371.085 1920.93 377.45 1920.93 385.683C1920.93 389.587 1920.63 393.109 1920.04 396.249H1874.72C1875.14 404.057 1877.18 409.744 1880.83 413.308C1884.56 416.873 1890.25 418.655 1897.89 418.655C1905.69 418.655 1912.95 417.34 1919.66 414.709V422.984C1916.77 424.511 1913.29 425.7 1909.22 426.548C1905.14 427.482 1900.9 427.949 1896.49 427.949ZM1910.62 388.356C1910.7 387.423 1910.74 386.234 1910.74 384.792C1910.74 379.529 1909.34 375.498 1906.54 372.697C1903.74 369.897 1899.67 368.496 1894.32 368.496C1888.47 368.496 1883.88 370.194 1880.57 373.588C1877.26 376.898 1875.31 381.821 1874.72 388.356H1910.62ZM1940.23 426.039V417H1956.4V370.533H1940.36V361.494H1965.95L1967.35 370.915C1970.4 367.35 1973.58 364.804 1976.89 363.277C1980.2 361.749 1984.07 360.985 1988.48 360.985C1990.09 360.985 1991.79 361.112 1993.57 361.367C1995.35 361.622 1996.75 361.961 1997.77 362.385V372.57C1994.8 371.721 1991.36 371.297 1987.46 371.297C1983.05 371.297 1979.31 371.891 1976.26 373.079C1973.29 374.183 1970.44 376.007 1967.73 378.553V417H1988.86V426.039H1940.23ZM2123.2 427.439C2111.49 427.439 2102.57 423.62 2096.46 415.982C2090.44 408.343 2087.42 397.183 2087.42 382.5C2087.42 367.817 2090.61 356.529 2096.97 348.636C2103.34 340.658 2112.38 336.669 2124.09 336.669C2127.99 336.669 2131.86 337.136 2135.67 338.07C2139.49 338.918 2142.8 340.149 2145.6 341.762V351.182C2142.29 349.824 2138.81 348.764 2135.17 348C2131.6 347.236 2128.33 346.854 2125.36 346.854C2108.13 346.854 2099.52 358.184 2099.52 380.845V383.646C2099.52 395.019 2101.51 403.463 2105.5 408.98C2109.58 414.497 2115.81 417.255 2124.22 417.255C2129.14 417.255 2133.68 416.533 2137.84 415.091V389.12H2120.02V379.572H2148.66V421.456C2145.43 423.238 2141.45 424.681 2136.69 425.784C2132.02 426.888 2127.53 427.439 2123.2 427.439ZM2165.41 426.039V417H2181.58V370.533H2165.54V361.494H2191.13L2192.53 370.915C2195.59 367.35 2198.77 364.804 2202.08 363.277C2205.39 361.749 2209.25 360.985 2213.66 360.985C2215.28 360.985 2216.97 361.112 2218.76 361.367C2220.54 361.622 2221.94 361.961 2222.96 362.385V372.57C2219.99 371.721 2216.55 371.297 2212.65 371.297C2208.23 371.297 2204.5 371.891 2201.44 373.079C2198.47 374.183 2195.63 376.007 2192.91 378.553V417H2214.05V426.039H2165.41ZM2268.36 427.949C2258.6 427.949 2251 424.936 2245.57 418.91C2240.14 412.884 2237.42 404.524 2237.42 393.83C2237.42 383.137 2240.14 374.777 2245.57 368.751C2251 362.725 2258.6 359.712 2268.36 359.712C2278.12 359.712 2285.71 362.725 2291.14 368.751C2296.58 374.777 2299.29 383.137 2299.29 393.83C2299.29 404.524 2296.58 412.884 2291.14 418.91C2285.71 424.936 2278.12 427.949 2268.36 427.949ZM2268.36 418.655C2274.72 418.655 2279.52 416.576 2282.74 412.417C2286.05 408.258 2287.71 402.063 2287.71 393.83C2287.71 377.28 2281.26 369.005 2268.36 369.005C2255.46 369.005 2249.01 377.28 2249.01 393.83C2249.01 402.063 2250.62 408.258 2253.84 412.417C2257.15 416.576 2261.99 418.655 2268.36 418.655ZM2334.63 427.949C2328.69 427.949 2324.15 426.294 2321.01 422.984C2317.87 419.674 2316.3 414.921 2316.3 408.725V361.494H2327.63V404.779C2327.63 409.532 2328.52 413.011 2330.3 415.218C2332.09 417.425 2334.97 418.528 2338.96 418.528C2345.84 418.528 2352.58 416.279 2359.2 411.781V361.494H2370.53V426.039H2360.99L2359.84 418.783C2351.78 424.893 2343.38 427.949 2334.63 427.949ZM2391.24 361.494H2400.78L2401.8 368.242C2408.25 362.555 2415.13 359.712 2422.43 359.712C2430.74 359.712 2437.28 362.683 2442.03 368.624C2446.87 374.48 2449.29 382.585 2449.29 392.939C2449.29 399.984 2448.1 406.179 2445.72 411.526C2443.43 416.873 2440.21 420.947 2436.05 423.748C2431.89 426.548 2427.09 427.949 2421.66 427.949C2414.62 427.949 2408.25 425.827 2402.57 421.583V452.264H2391.24V361.494ZM2419.37 418.655C2425.4 418.655 2429.94 416.533 2432.99 412.29C2436.13 408.046 2437.7 401.808 2437.7 393.576C2437.7 385.513 2436.17 379.402 2433.12 375.243C2430.15 371.085 2425.69 369.005 2419.75 369.005C2413.9 369.005 2408.17 371.17 2402.57 375.498V413.181C2407.83 416.831 2413.43 418.655 2419.37 418.655Z" fill="#161D26"/>
</svg>
