<svg width="3000" height="750" viewBox="0 0 3000 750" fill="none" xmlns="http://www.w3.org/2000/svg">
<rect width="3000" height="750" fill="#AD5CFF"/>
<path d="M747.184 427.95C742.601 427.95 738.145 427.44 733.817 426.422C729.489 425.404 725.669 423.961 722.359 422.094V412.927C727.027 414.879 731.271 416.237 735.09 417.001C738.909 417.765 742.941 418.147 747.184 418.147C753.719 418.147 758.896 416.789 762.716 414.073C766.535 411.272 768.445 407.496 768.445 402.743C768.445 400.282 768.063 398.245 767.299 396.632C766.62 395.02 765.347 393.577 763.48 392.304C761.612 391.031 758.854 389.715 755.205 388.357L744.638 384.538C736.151 381.483 730.21 378.088 726.815 374.353C723.42 370.534 721.723 365.484 721.723 359.204C721.723 352.159 724.439 346.515 729.87 342.272C735.387 338.028 742.644 335.907 751.64 335.907C759.957 335.907 767.723 337.604 774.937 340.999V350.165C766.195 347.194 758.43 345.709 751.64 345.709C745.784 345.709 741.286 346.855 738.145 349.146C735.005 351.438 733.435 354.748 733.435 359.076C733.435 362.726 734.538 365.612 736.745 367.733C739.037 369.855 743.492 372.104 750.112 374.481L760.679 378.3C767.723 380.761 772.731 383.859 775.701 387.593C778.672 391.328 780.157 396.335 780.157 402.616C780.157 407.793 778.756 412.291 775.956 416.11C773.155 419.929 769.293 422.857 764.371 424.894C759.448 426.931 753.719 427.95 747.184 427.95ZM831.539 427.313C824.325 427.313 819.105 425.701 815.88 422.475C812.655 419.25 811.043 413.988 811.043 406.689V370.534H795.002V362.768L811.297 361.623L813.08 341.508H822.373V361.495H851.908V370.534H822.373V405.544C822.373 410.127 823.222 413.352 824.919 415.219C826.701 417.086 829.757 418.02 834.085 418.02C836.971 418.02 840.069 417.765 843.379 417.256C846.689 416.662 849.744 415.898 852.545 414.964V423.239C850.168 424.427 847.028 425.404 843.124 426.167C839.305 426.931 835.443 427.313 831.539 427.313ZM892.342 427.95C886.401 427.95 881.861 426.295 878.72 422.985C875.58 419.675 874.01 414.922 874.01 408.726V361.495H885.34V404.78C885.34 409.533 886.232 413.012 888.014 415.219C889.796 417.426 892.682 418.529 896.671 418.529C903.545 418.529 910.293 416.28 916.913 411.782V361.495H928.243V426.04H918.695L917.549 418.784C909.486 424.894 901.084 427.95 892.342 427.95ZM972.623 427.95C964.136 427.95 957.474 424.979 952.636 419.038C947.798 413.012 945.38 404.737 945.38 394.213C945.38 383.689 947.841 375.329 952.763 369.134C957.771 362.853 964.476 359.713 972.878 359.713C976.527 359.713 979.88 360.307 982.935 361.495C986.076 362.683 989.131 364.593 992.101 367.224V331.833H1003.43V426.04H993.374L992.356 419.929C989.555 422.475 986.457 424.47 983.063 425.913C979.668 427.271 976.188 427.95 972.623 427.95ZM975.933 418.656C980.941 418.656 986.33 416.534 992.101 412.291V375.372C989.216 373.08 986.457 371.468 983.826 370.534C981.195 369.516 978.31 369.006 975.17 369.006C969.144 369.006 964.603 371.086 961.548 375.244C958.492 379.403 956.965 385.556 956.965 393.704C956.965 401.767 958.577 407.962 961.802 412.291C965.112 416.534 969.823 418.656 975.933 418.656ZM1054.69 427.95C1043.99 427.95 1035.85 425.064 1030.24 419.293C1024.73 413.437 1021.97 404.907 1021.97 393.704C1021.97 383.01 1024.68 374.693 1030.12 368.752C1035.55 362.726 1043.1 359.713 1052.78 359.713C1061.09 359.713 1067.54 362.005 1072.13 366.588C1076.8 371.086 1079.13 377.451 1079.13 385.684C1079.13 389.588 1078.83 393.11 1078.24 396.25H1032.92C1033.34 404.058 1035.38 409.745 1039.03 413.309C1042.76 416.874 1048.45 418.656 1056.09 418.656C1063.9 418.656 1071.15 417.341 1077.86 414.71V422.985C1074.97 424.512 1071.49 425.701 1067.42 426.549C1063.34 427.483 1059.1 427.95 1054.69 427.95ZM1068.82 388.357C1068.9 387.424 1068.95 386.235 1068.95 384.793C1068.95 379.53 1067.54 375.499 1064.74 372.698C1061.94 369.898 1057.87 368.497 1052.52 368.497C1046.67 368.497 1042.08 370.195 1038.77 373.589C1035.46 376.899 1033.51 381.822 1032.92 388.357H1068.82ZM1098.94 361.495H1108.49L1109.63 368.879C1117.95 362.768 1126.57 359.713 1135.48 359.713C1141.59 359.713 1146.26 361.41 1149.48 364.805C1152.79 368.115 1154.45 372.868 1154.45 379.064V426.04H1143.12V383.01C1143.12 378.173 1142.14 374.608 1140.19 372.316C1138.32 370.025 1135.31 368.879 1131.15 368.879C1124.36 368.879 1117.4 371.213 1110.27 375.881V426.04H1098.94V361.495ZM1206.85 427.313C1199.63 427.313 1194.41 425.701 1191.19 422.475C1187.96 419.25 1186.35 413.988 1186.35 406.689V370.534H1170.31V362.768L1186.6 361.623L1188.39 341.508H1197.68V361.495H1227.22V370.534H1197.68V405.544C1197.68 410.127 1198.53 413.352 1200.23 415.219C1202.01 417.086 1205.06 418.02 1209.39 418.02C1212.28 418.02 1215.38 417.765 1218.69 417.256C1222 416.662 1225.05 415.898 1227.85 414.964V423.239C1225.48 424.427 1222.34 425.404 1218.43 426.167C1214.61 426.931 1210.75 427.313 1206.85 427.313ZM1323.36 337.816H1350.73C1358.88 337.816 1365.41 339.938 1370.34 344.182C1375.34 348.425 1377.85 354.069 1377.85 361.113C1377.85 365.527 1376.83 369.346 1374.79 372.571C1372.76 375.711 1369.83 378.13 1366.01 379.828C1371.44 381.44 1375.6 384.114 1378.48 387.848C1381.37 391.497 1382.81 396.038 1382.81 401.47C1382.81 408.938 1380.22 414.922 1375.05 419.42C1369.87 423.833 1362.95 426.04 1354.3 426.04H1323.36V337.816ZM1354.04 416.874C1365.33 416.874 1370.97 411.612 1370.97 401.088C1370.97 395.911 1369.53 392.007 1366.65 389.376C1363.76 386.745 1359.52 385.429 1353.91 385.429H1334.44V416.874H1354.04ZM1349.71 376.518C1360.66 376.518 1366.14 371.595 1366.14 361.75C1366.14 356.827 1364.74 353.135 1361.93 350.674C1359.22 348.213 1355.23 346.982 1349.97 346.982H1334.44V376.518H1349.71ZM1417.77 427.95C1411.83 427.95 1407.29 426.295 1404.15 422.985C1401.01 419.675 1399.44 414.922 1399.44 408.726V361.495H1410.77V404.78C1410.77 409.533 1411.66 413.012 1413.44 415.219C1415.23 417.426 1418.11 418.529 1422.1 418.529C1428.98 418.529 1435.72 416.28 1442.34 411.782V361.495H1453.67V426.04H1444.13L1442.98 418.784C1434.92 424.894 1426.51 427.95 1417.77 427.95ZM1473.23 417.001H1497.04V370.534H1477.56V361.495H1508.37V417.001H1530.77V426.04H1473.23V417.001ZM1500.6 350.165C1498.14 350.165 1496.14 349.444 1494.62 348.001C1493.09 346.473 1492.33 344.479 1492.33 342.017C1492.33 339.471 1493.09 337.477 1494.62 336.034C1496.14 334.506 1498.14 333.742 1500.6 333.742C1503.15 333.742 1505.18 334.506 1506.71 336.034C1508.24 337.477 1509 339.471 1509 342.017C1509 344.479 1508.24 346.473 1506.71 348.001C1505.18 349.444 1503.15 350.165 1500.6 350.165ZM1547.27 417.001H1571.08V340.872H1550.45V331.833H1582.41V417.001H1604.81V426.04H1547.27V417.001ZM1648.18 427.95C1639.69 427.95 1633.03 424.979 1628.19 419.038C1623.35 413.012 1620.93 404.737 1620.93 394.213C1620.93 383.689 1623.39 375.329 1628.32 369.134C1633.32 362.853 1640.03 359.713 1648.43 359.713C1652.08 359.713 1655.43 360.307 1658.49 361.495C1661.63 362.683 1664.68 364.593 1667.65 367.224V331.833H1678.99V426.04H1668.93L1667.91 419.929C1665.11 422.475 1662.01 424.47 1658.62 425.913C1655.22 427.271 1651.74 427.95 1648.18 427.95ZM1651.49 418.656C1656.49 418.656 1661.88 416.534 1667.65 412.291V375.372C1664.77 373.08 1662.01 371.468 1659.38 370.534C1656.75 369.516 1653.86 369.006 1650.72 369.006C1644.7 369.006 1640.16 371.086 1637.1 375.244C1634.05 379.403 1632.52 385.556 1632.52 393.704C1632.52 401.767 1634.13 407.962 1637.36 412.291C1640.67 416.534 1645.38 418.656 1651.49 418.656ZM1730.24 427.95C1719.55 427.95 1711.4 425.064 1705.8 419.293C1700.28 413.437 1697.52 404.907 1697.52 393.704C1697.52 383.01 1700.24 374.693 1705.67 368.752C1711.1 362.726 1718.66 359.713 1728.33 359.713C1736.65 359.713 1743.1 362.005 1747.68 366.588C1752.35 371.086 1754.68 377.451 1754.68 385.684C1754.68 389.588 1754.39 393.11 1753.79 396.25H1708.47C1708.9 404.058 1710.93 409.745 1714.58 413.309C1718.32 416.874 1724 418.656 1731.64 418.656C1739.45 418.656 1746.71 417.341 1753.41 414.71V422.985C1750.52 424.512 1747.04 425.701 1742.97 426.549C1738.9 427.483 1734.65 427.95 1730.24 427.95ZM1744.37 388.357C1744.46 387.424 1744.5 386.235 1744.5 384.793C1744.5 379.53 1743.1 375.499 1740.3 372.698C1737.5 369.898 1733.42 368.497 1728.08 368.497C1722.22 368.497 1717.64 370.195 1714.33 373.589C1711.02 376.899 1709.06 381.822 1708.47 388.357H1744.37ZM1773.98 426.04V417.001H1790.15V370.534H1774.11V361.495H1799.7L1801.1 370.916C1804.16 367.351 1807.34 364.805 1810.65 363.278C1813.96 361.75 1817.82 360.986 1822.23 360.986C1823.85 360.986 1825.54 361.113 1827.33 361.368C1829.11 361.623 1830.51 361.962 1831.53 362.386V372.571C1828.56 371.722 1825.12 371.298 1821.22 371.298C1816.8 371.298 1813.07 371.892 1810.01 373.08C1807.04 374.184 1804.2 376.008 1801.48 378.554V417.001H1822.62V426.04H1773.98ZM1956.95 427.44C1945.24 427.44 1936.33 423.621 1930.22 415.983C1924.19 408.344 1921.18 397.184 1921.18 382.501C1921.18 367.818 1924.36 356.53 1930.73 348.637C1937.09 340.659 1946.13 336.67 1957.84 336.67C1961.75 336.67 1965.61 337.137 1969.43 338.071C1973.25 338.919 1976.56 340.15 1979.36 341.763V351.183C1976.05 349.825 1972.57 348.765 1968.92 348.001C1965.35 347.237 1962.09 346.855 1959.12 346.855C1941.89 346.855 1933.27 358.185 1933.27 380.846V383.647C1933.27 395.02 1935.27 403.464 1939.26 408.981C1943.33 414.498 1949.57 417.256 1957.97 417.256C1962.89 417.256 1967.43 416.534 1971.59 415.092V389.121H1953.77V379.573H1982.41V421.457C1979.19 423.239 1975.2 424.682 1970.45 425.785C1965.78 426.889 1961.28 427.44 1956.95 427.44ZM1999.17 426.04V417.001H2015.34V370.534H1999.3V361.495H2024.88L2026.29 370.916C2029.34 367.351 2032.52 364.805 2035.83 363.278C2039.14 361.75 2043.01 360.986 2047.42 360.986C2049.03 360.986 2050.73 361.113 2052.51 361.368C2054.29 361.623 2055.69 361.962 2056.71 362.386V372.571C2053.74 371.722 2050.3 371.298 2046.4 371.298C2041.99 371.298 2038.25 371.892 2035.2 373.08C2032.23 374.184 2029.38 376.008 2026.67 378.554V417.001H2047.8V426.04H1999.17ZM2102.11 427.95C2092.35 427.95 2084.75 424.937 2079.32 418.911C2073.89 412.885 2071.18 404.525 2071.18 393.831C2071.18 383.138 2073.89 374.778 2079.32 368.752C2084.75 362.726 2092.35 359.713 2102.11 359.713C2111.87 359.713 2119.47 362.726 2124.9 368.752C2130.33 374.778 2133.05 383.138 2133.05 393.831C2133.05 404.525 2130.33 412.885 2124.9 418.911C2119.47 424.937 2111.87 427.95 2102.11 427.95ZM2102.11 418.656C2108.48 418.656 2113.27 416.577 2116.5 412.418C2119.81 408.259 2121.46 402.064 2121.46 393.831C2121.46 377.281 2115.01 369.006 2102.11 369.006C2089.21 369.006 2082.76 377.281 2082.76 393.831C2082.76 402.064 2084.37 408.259 2087.6 412.418C2090.91 416.577 2095.75 418.656 2102.11 418.656ZM2168.39 427.95C2162.45 427.95 2157.91 426.295 2154.77 422.985C2151.63 419.675 2150.06 414.922 2150.06 408.726V361.495H2161.39V404.78C2161.39 409.533 2162.28 413.012 2164.06 415.219C2165.84 417.426 2168.73 418.529 2172.72 418.529C2179.59 418.529 2186.34 416.28 2192.96 411.782V361.495H2204.29V426.04H2194.74L2193.59 418.784C2185.53 424.894 2177.13 427.95 2168.39 427.95ZM2224.99 361.495H2234.54L2235.56 368.243C2242.01 362.556 2248.88 359.713 2256.18 359.713C2264.5 359.713 2271.03 362.683 2275.79 368.624C2280.62 374.481 2283.04 382.586 2283.04 392.94C2283.04 399.984 2281.85 406.18 2279.48 411.527C2277.19 416.874 2273.96 420.948 2269.8 423.749C2265.64 426.549 2260.85 427.95 2255.42 427.95C2248.37 427.95 2242.01 425.828 2236.32 421.584V452.265H2224.99V361.495ZM2253.12 418.656C2259.15 418.656 2263.69 416.534 2266.75 412.291C2269.89 408.047 2271.46 401.809 2271.46 393.577C2271.46 385.514 2269.93 379.403 2266.87 375.244C2263.9 371.086 2259.45 369.006 2253.51 369.006C2247.65 369.006 2241.92 371.171 2236.32 375.499V413.182C2241.58 416.831 2247.18 418.656 2253.12 418.656Z" fill="#161D26"/>
</svg>
