<svg width="3000" height="750" viewBox="0 0 3000 750" fill="none" xmlns="http://www.w3.org/2000/svg">
<rect width="3000" height="750" fill="#42B4FF"/>
<path d="M747.184 427.949C742.601 427.949 738.145 427.439 733.817 426.421C729.489 425.403 725.669 423.96 722.359 422.093V412.926C727.027 414.878 731.271 416.236 735.09 417C738.909 417.764 742.941 418.146 747.184 418.146C753.719 418.146 758.896 416.788 762.716 414.072C766.535 411.271 768.445 407.495 768.445 402.742C768.445 400.281 768.063 398.244 767.299 396.631C766.62 395.019 765.347 393.576 763.48 392.303C761.612 391.03 758.854 389.714 755.205 388.356L744.638 384.537C736.151 381.482 730.21 378.087 726.815 374.352C723.42 370.533 721.723 365.483 721.723 359.203C721.723 352.158 724.439 346.514 729.87 342.271C735.387 338.027 742.644 335.906 751.64 335.906C759.957 335.906 767.723 337.603 774.937 340.998V350.164C766.195 347.193 758.43 345.708 751.64 345.708C745.784 345.708 741.286 346.854 738.145 349.146C735.005 351.437 733.435 354.747 733.435 359.075C733.435 362.725 734.538 365.611 736.745 367.732C739.037 369.854 743.492 372.103 750.112 374.48L760.679 378.299C767.723 380.76 772.731 383.858 775.701 387.592C778.672 391.327 780.157 396.334 780.157 402.615C780.157 407.792 778.756 412.29 775.956 416.109C773.155 419.928 769.293 422.856 764.371 424.893C759.448 426.93 753.719 427.949 747.184 427.949ZM831.539 427.312C824.325 427.312 819.105 425.7 815.88 422.474C812.655 419.249 811.043 413.987 811.043 406.688V370.533H795.002V362.767L811.297 361.622L813.08 341.507H822.373V361.494H851.908V370.533H822.373V405.543C822.373 410.126 823.222 413.351 824.919 415.218C826.701 417.085 829.757 418.019 834.085 418.019C836.971 418.019 840.069 417.764 843.379 417.255C846.689 416.661 849.744 415.897 852.545 414.963V423.238C850.168 424.427 847.028 425.403 843.124 426.166C839.305 426.93 835.443 427.312 831.539 427.312ZM892.342 427.949C886.401 427.949 881.861 426.294 878.72 422.984C875.58 419.674 874.01 414.921 874.01 408.725V361.494H885.34V404.779C885.34 409.532 886.232 413.011 888.014 415.218C889.796 417.425 892.682 418.528 896.671 418.528C903.545 418.528 910.293 416.279 916.913 411.781V361.494H928.243V426.039H918.695L917.549 418.783C909.486 424.893 901.084 427.949 892.342 427.949ZM972.623 427.949C964.136 427.949 957.474 424.978 952.636 419.037C947.798 413.011 945.38 404.736 945.38 394.212C945.38 383.688 947.841 375.328 952.763 369.133C957.771 362.852 964.476 359.712 972.878 359.712C976.527 359.712 979.88 360.306 982.935 361.494C986.076 362.683 989.131 364.592 992.101 367.223V331.832H1003.43V426.039H993.374L992.356 419.928C989.555 422.474 986.457 424.469 983.063 425.912C979.668 427.27 976.188 427.949 972.623 427.949ZM975.933 418.655C980.941 418.655 986.33 416.533 992.101 412.29V375.371C989.216 373.079 986.457 371.467 983.826 370.533C981.195 369.515 978.31 369.005 975.17 369.005C969.144 369.005 964.603 371.085 961.548 375.243C958.492 379.402 956.965 385.555 956.965 393.703C956.965 401.766 958.577 407.961 961.802 412.29C965.112 416.533 969.823 418.655 975.933 418.655ZM1054.69 427.949C1043.99 427.949 1035.85 425.063 1030.24 419.292C1024.73 413.436 1021.97 404.906 1021.97 393.703C1021.97 383.009 1024.68 374.692 1030.12 368.751C1035.55 362.725 1043.1 359.712 1052.78 359.712C1061.09 359.712 1067.54 362.004 1072.13 366.587C1076.8 371.085 1079.13 377.45 1079.13 385.683C1079.13 389.587 1078.83 393.109 1078.24 396.249H1032.92C1033.34 404.057 1035.38 409.744 1039.03 413.308C1042.76 416.873 1048.45 418.655 1056.09 418.655C1063.9 418.655 1071.15 417.34 1077.86 414.709V422.984C1074.97 424.511 1071.49 425.7 1067.42 426.548C1063.34 427.482 1059.1 427.949 1054.69 427.949ZM1068.82 388.356C1068.9 387.423 1068.95 386.234 1068.95 384.792C1068.95 379.529 1067.54 375.498 1064.74 372.697C1061.94 369.897 1057.87 368.496 1052.52 368.496C1046.67 368.496 1042.08 370.194 1038.77 373.588C1035.46 376.898 1033.51 381.821 1032.92 388.356H1068.82ZM1098.94 361.494H1108.49L1109.63 368.878C1117.95 362.767 1126.57 359.712 1135.48 359.712C1141.59 359.712 1146.26 361.409 1149.48 364.804C1152.79 368.114 1154.45 372.867 1154.45 379.063V426.039H1143.12V383.009C1143.12 378.172 1142.14 374.607 1140.19 372.315C1138.32 370.024 1135.31 368.878 1131.15 368.878C1124.36 368.878 1117.4 371.212 1110.27 375.88V426.039H1098.94V361.494ZM1206.85 427.312C1199.63 427.312 1194.41 425.7 1191.19 422.474C1187.96 419.249 1186.35 413.987 1186.35 406.688V370.533H1170.31V362.767L1186.6 361.622L1188.39 341.507H1197.68V361.494H1227.22V370.533H1197.68V405.543C1197.68 410.126 1198.53 413.351 1200.23 415.218C1202.01 417.085 1205.06 418.019 1209.39 418.019C1212.28 418.019 1215.38 417.764 1218.69 417.255C1222 416.661 1225.05 415.897 1227.85 414.963V423.238C1225.48 424.427 1222.34 425.403 1218.43 426.166C1214.61 426.93 1210.75 427.312 1206.85 427.312ZM1323.36 337.815H1350.73C1358.88 337.815 1365.41 339.937 1370.34 344.181C1375.34 348.424 1377.85 354.068 1377.85 361.112C1377.85 365.526 1376.83 369.345 1374.79 372.57C1372.76 375.71 1369.83 378.129 1366.01 379.827C1371.44 381.439 1375.6 384.113 1378.48 387.847C1381.37 391.496 1382.81 396.037 1382.81 401.469C1382.81 408.937 1380.22 414.921 1375.05 419.419C1369.87 423.832 1362.95 426.039 1354.3 426.039H1323.36V337.815ZM1354.04 416.873C1365.33 416.873 1370.97 411.611 1370.97 401.087C1370.97 395.91 1369.53 392.006 1366.65 389.375C1363.76 386.744 1359.52 385.428 1353.91 385.428H1334.44V416.873H1354.04ZM1349.71 376.517C1360.66 376.517 1366.14 371.594 1366.14 361.749C1366.14 356.826 1364.74 353.134 1361.93 350.673C1359.22 348.212 1355.23 346.981 1349.97 346.981H1334.44V376.517H1349.71ZM1417.77 427.949C1411.83 427.949 1407.29 426.294 1404.15 422.984C1401.01 419.674 1399.44 414.921 1399.44 408.725V361.494H1410.77V404.779C1410.77 409.532 1411.66 413.011 1413.44 415.218C1415.23 417.425 1418.11 418.528 1422.1 418.528C1428.98 418.528 1435.72 416.279 1442.34 411.781V361.494H1453.67V426.039H1444.13L1442.98 418.783C1434.92 424.893 1426.51 427.949 1417.77 427.949ZM1473.23 417H1497.04V370.533H1477.56V361.494H1508.37V417H1530.77V426.039H1473.23V417ZM1500.6 350.164C1498.14 350.164 1496.14 349.443 1494.62 348C1493.09 346.472 1492.33 344.478 1492.33 342.016C1492.33 339.47 1493.09 337.476 1494.62 336.033C1496.14 334.505 1498.14 333.741 1500.6 333.741C1503.15 333.741 1505.18 334.505 1506.71 336.033C1508.24 337.476 1509 339.47 1509 342.016C1509 344.478 1508.24 346.472 1506.71 348C1505.18 349.443 1503.15 350.164 1500.6 350.164ZM1547.27 417H1571.08V340.871H1550.45V331.832H1582.41V417H1604.81V426.039H1547.27V417ZM1648.18 427.949C1639.69 427.949 1633.03 424.978 1628.19 419.037C1623.35 413.011 1620.93 404.736 1620.93 394.212C1620.93 383.688 1623.39 375.328 1628.32 369.133C1633.32 362.852 1640.03 359.712 1648.43 359.712C1652.08 359.712 1655.43 360.306 1658.49 361.494C1661.63 362.683 1664.68 364.592 1667.65 367.223V331.832H1678.99V426.039H1668.93L1667.91 419.928C1665.11 422.474 1662.01 424.469 1658.62 425.912C1655.22 427.27 1651.74 427.949 1648.18 427.949ZM1651.49 418.655C1656.49 418.655 1661.88 416.533 1667.65 412.29V375.371C1664.77 373.079 1662.01 371.467 1659.38 370.533C1656.75 369.515 1653.86 369.005 1650.72 369.005C1644.7 369.005 1640.16 371.085 1637.1 375.243C1634.05 379.402 1632.52 385.555 1632.52 393.703C1632.52 401.766 1634.13 407.961 1637.36 412.29C1640.67 416.533 1645.38 418.655 1651.49 418.655ZM1730.24 427.949C1719.55 427.949 1711.4 425.063 1705.8 419.292C1700.28 413.436 1697.52 404.906 1697.52 393.703C1697.52 383.009 1700.24 374.692 1705.67 368.751C1711.1 362.725 1718.66 359.712 1728.33 359.712C1736.65 359.712 1743.1 362.004 1747.68 366.587C1752.35 371.085 1754.68 377.45 1754.68 385.683C1754.68 389.587 1754.39 393.109 1753.79 396.249H1708.47C1708.9 404.057 1710.93 409.744 1714.58 413.308C1718.32 416.873 1724 418.655 1731.64 418.655C1739.45 418.655 1746.71 417.34 1753.41 414.709V422.984C1750.52 424.511 1747.04 425.7 1742.97 426.548C1738.9 427.482 1734.65 427.949 1730.24 427.949ZM1744.37 388.356C1744.46 387.423 1744.5 386.234 1744.5 384.792C1744.5 379.529 1743.1 375.498 1740.3 372.697C1737.5 369.897 1733.42 368.496 1728.08 368.496C1722.22 368.496 1717.64 370.194 1714.33 373.588C1711.02 376.898 1709.06 381.821 1708.47 388.356H1744.37ZM1773.98 426.039V417H1790.15V370.533H1774.11V361.494H1799.7L1801.1 370.915C1804.16 367.35 1807.34 364.804 1810.65 363.277C1813.96 361.749 1817.82 360.985 1822.23 360.985C1823.85 360.985 1825.54 361.112 1827.33 361.367C1829.11 361.622 1830.51 361.961 1831.53 362.385V372.57C1828.56 371.721 1825.12 371.297 1821.22 371.297C1816.8 371.297 1813.07 371.891 1810.01 373.079C1807.04 374.183 1804.2 376.007 1801.48 378.553V417H1822.62V426.039H1773.98ZM1956.95 427.439C1945.24 427.439 1936.33 423.62 1930.22 415.982C1924.19 408.343 1921.18 397.183 1921.18 382.5C1921.18 367.817 1924.36 356.529 1930.73 348.636C1937.09 340.658 1946.13 336.669 1957.84 336.669C1961.75 336.669 1965.61 337.136 1969.43 338.07C1973.25 338.918 1976.56 340.149 1979.36 341.762V351.182C1976.05 349.824 1972.57 348.764 1968.92 348C1965.35 347.236 1962.09 346.854 1959.12 346.854C1941.89 346.854 1933.27 358.184 1933.27 380.845V383.646C1933.27 395.019 1935.27 403.463 1939.26 408.98C1943.33 414.497 1949.57 417.255 1957.97 417.255C1962.89 417.255 1967.43 416.533 1971.59 415.091V389.12H1953.77V379.572H1982.41V421.456C1979.19 423.238 1975.2 424.681 1970.45 425.784C1965.78 426.888 1961.28 427.439 1956.95 427.439ZM1999.17 426.039V417H2015.34V370.533H1999.3V361.494H2024.88L2026.29 370.915C2029.34 367.35 2032.52 364.804 2035.83 363.277C2039.14 361.749 2043.01 360.985 2047.42 360.985C2049.03 360.985 2050.73 361.112 2052.51 361.367C2054.29 361.622 2055.69 361.961 2056.71 362.385V372.57C2053.74 371.721 2050.3 371.297 2046.4 371.297C2041.99 371.297 2038.25 371.891 2035.2 373.079C2032.23 374.183 2029.38 376.007 2026.67 378.553V417H2047.8V426.039H1999.17ZM2102.11 427.949C2092.35 427.949 2084.75 424.936 2079.32 418.91C2073.89 412.884 2071.18 404.524 2071.18 393.83C2071.18 383.137 2073.89 374.777 2079.32 368.751C2084.75 362.725 2092.35 359.712 2102.11 359.712C2111.87 359.712 2119.47 362.725 2124.9 368.751C2130.33 374.777 2133.05 383.137 2133.05 393.83C2133.05 404.524 2130.33 412.884 2124.9 418.91C2119.47 424.936 2111.87 427.949 2102.11 427.949ZM2102.11 418.655C2108.48 418.655 2113.27 416.576 2116.5 412.417C2119.81 408.258 2121.46 402.063 2121.46 393.83C2121.46 377.28 2115.01 369.005 2102.11 369.005C2089.21 369.005 2082.76 377.28 2082.76 393.83C2082.76 402.063 2084.37 408.258 2087.6 412.417C2090.91 416.576 2095.75 418.655 2102.11 418.655ZM2168.39 427.949C2162.45 427.949 2157.91 426.294 2154.77 422.984C2151.63 419.674 2150.06 414.921 2150.06 408.725V361.494H2161.39V404.779C2161.39 409.532 2162.28 413.011 2164.06 415.218C2165.84 417.425 2168.73 418.528 2172.72 418.528C2179.59 418.528 2186.34 416.279 2192.96 411.781V361.494H2204.29V426.039H2194.74L2193.59 418.783C2185.53 424.893 2177.13 427.949 2168.39 427.949ZM2224.99 361.494H2234.54L2235.56 368.242C2242.01 362.555 2248.88 359.712 2256.18 359.712C2264.5 359.712 2271.03 362.683 2275.79 368.624C2280.62 374.48 2283.04 382.585 2283.04 392.939C2283.04 399.984 2281.85 406.179 2279.48 411.526C2277.19 416.873 2273.96 420.947 2269.8 423.748C2265.64 426.548 2260.85 427.949 2255.42 427.949C2248.37 427.949 2242.01 425.827 2236.32 421.583V452.264H2224.99V361.494ZM2253.12 418.655C2259.15 418.655 2263.69 416.533 2266.75 412.29C2269.89 408.046 2271.46 401.808 2271.46 393.576C2271.46 385.513 2269.93 379.402 2266.87 375.243C2263.9 371.085 2259.45 369.005 2253.51 369.005C2247.65 369.005 2241.92 371.17 2236.32 375.498V413.181C2241.58 416.831 2247.18 418.655 2253.12 418.655Z" fill="#161D26"/>
</svg>
